<svg xmlns="http://www.w3.org/2000/svg" xmlns:xlink="http://www.w3.org/1999/xlink" viewBox="765.50335208099 180.959904 1039.5212598425196 987.8256" id="svg1" version="1.1" style="max-height: 500px" width="1039.5212598425196" height="987.8256">
  <defs id="defs1">
    
    <clipPath id="clipPath2" clipPathUnits="userSpaceOnUse">
      <path id="path2" transform="translate(-1164.6289,-863.68022)" d="M 0,1080 H 1920 V 0 H 0 Z"/>
    </clipPath>
    <clipPath id="clipPath4" clipPathUnits="userSpaceOnUse">
      <path id="path4" transform="translate(-1030.0986,-762.77642)" d="M 0,1080 H 1920 V 0 H 0 Z"/>
    </clipPath>
    <clipPath id="clipPath6" clipPathUnits="userSpaceOnUse">
      <path id="path6" transform="translate(-1201.4092,-362.24121)" d="M 0,1080 H 1920 V 0 H 0 Z"/>
    </clipPath>
  </defs>
  
    
  
  <g id="layer-MC0">
    <path clip-path="url(#clipPath2)" transform="matrix(1.3333333,0,0,-1.3333333,1552.8385,288.4264)" style="fill:#0182b0;fill-opacity:1;fill-rule:nonzero;stroke:none" d="m 0,0 c 0,0 -359.783,13.612 -434.167,-269.078 -61.144,-232.377 125.37,-333.271 183.464,-351.615 0,0 -165.108,9.168 -250.726,204.85 0,0 -79.502,201.797 55.027,345.506 C -311.874,73.372 -97.845,76.436 0,0" id="path1"/>
    <path clip-path="url(#clipPath4)" transform="matrix(1.3333333,0,0,-1.3333333,1373.4648,422.9648)" style="fill:#029bdd;fill-opacity:1;fill-rule:nonzero;stroke:none" d="m 0,0 c 0,0 110.069,97.845 143.703,88.674 22.072,-6.019 88.916,-54.174 127.079,-149.652 47.03,-117.657 26.189,-252.591 -54.25,-350.494 -25.259,-30.742 -57.31,-57.677 -97.273,-71.619 0,0 117.714,77.971 114.652,215.562 -3.061,137.59 -99.377,206.707 -99.377,206.707 0,0 -68.797,59.295 -134.534,60.822" id="path3"/>
    <path clip-path="url(#clipPath6)" transform="matrix(1.3333333,0,0,-1.3333333,1601.8789,957.01173)" style="fill:#7cb643;fill-opacity:1;fill-rule:nonzero;stroke:none" d="m 0,0 c -20.816,-30.829 -53.586,-65.184 -82.681,-79.461 -71.292,-34.982 -150.055,-33.152 -226.131,-6.16 -94.785,33.631 -137.594,134.528 -146.768,171.219 -4.099,16.397 -6.107,24.412 -9.173,42.805 -3.059,18.346 2.156,73.931 15.285,85.613 9.176,-110.072 61.156,-195.682 165.115,-250.715 C -189.567,-70.33 -90.983,-52.877 0,0" id="path5"/>
  </g>
</svg>