<svg id="Capa_1" data-name="Capa 1" xmlns="http://www.w3.org/2000/svg" viewBox="0 0 595.28 841.89"><defs><style>.cls-1{fill:#9d9d9c;}</style></defs><path class="cls-1" d="M485.48,668.18c-1.29.17-2.84-.2-3.32,1.63-1.64,1.32-3.19,2.79-5.26,3.48l-13.82,5.45c-2.93.83-5.89,2.09-8.54-.66l-.5-2.19c-1.25-4.5,3.89-3.1,5.07-5.43-3.93-1.66-6.89,2.79-10.68,1.56-7,1.77-13.88,2.57-20.18-2.14,1-10.25-5.22-13.37-13.87-14.16-1.74-.34-1.1-2.17-1.91-3.09-2.35-2.74-4.79-1.39-7.22-.17-2.66,1.89-4.85,3-7.65-.45-1.78-2.19-5.09-3.14-7.71-4.65-2.12-1.5-5.28-1.23-6.7-3.93l.06.09c-8.52-3.94-15.63-2.12-21.41,5.21-1.52,1.93-4,2.28-6,3.42-14.18,4.67-25.16-1.76-35.56-10.22-7.22-4-15.47-4.3-23.19-6.53-6.64-1.92-13.13-3.74-18.95-8-7.24-5.29-10.78-3.72-13.11,5-.76,2.81-1.51,5.07-4.91,4.77-4.93-.43-10.19-.62-12.73-5.83-1.64-3.35-3.07-6.21-6.34-8.76-15.31-12-28.76-26.06-42.9-39.36-2.24-1.54-4.68-2.45-5.45-5.86-2.76-12.29-3.44-12.48-13.55-6.66l-5.39-5c-2.32-3.61-3.91-7.57-6.94-10.85-5.93-6.42-5.68-7,1.06-12.62-3.72-1.51-8.27.58-11.46-2.77l-10.32-11.55c-1.15-1.28-3-2.38-3.38-3.85-4.55-17.72-22.33-20.59-33.89-30.4-3.21-2.72-7.86-3.69-9.81-8-1.26-1.63,6.39-1.18.88-3.63-1.2-.53-3,1.61-4.37-.28-6.86-7-13.35-14.37-21.15-20.55-4.69-3.71-9-8.81-8.45-15.87-2.17-1.66-2.73.89-4,1.53-5.54-4.61-11.28-9-16.55-13.91-3.68-3.42-4.68-7.37.76-10.51A14.15,14.15,0,0,0,48.33,421c8.11-7,9.35-7.69,15.37,1.82,3.83,6.06,9.26,9.27,14,13.68,3.89,2.26,7.64,3.29,10.72-1.28-1.13-9.09,12.53-16.25,22.88-11.11,3.81,1.9,5,.44,7.07-1.4,3.16-2.18,4.4-5.8,6.57-8.72l.07-.09a1.83,1.83,0,0,1,1.65-.5c3,0,.1-2.12,1-2.9,0-5.92-.24-11.84,2.21-17.42.91-1.63,2.48-2.47,4-3.34l-.07.05c4.39-4.6,7.92-2,11.36,1.33,5.93.35,6.41-3.24,5.35-7.67-.64-2.66-3.31-5-1.21-8l-1.94-11.77c.64-4.82-2.67-9.6-.14-14.44,3-3.1,10.57-2.59,7.34-10.67-1.13-2.82,3.79-1.08,5.28-2.73l7-.13c2.14,1.31,4.25,2.69,7,1.76,4.22-2.77,8.47,3.89,12.69-.05,3.88-1.41,8.5-1.88,9.37-7.21a1.43,1.43,0,0,1,.4-1.52c2.32-2.49,4.53-5.1,7-7.47l1.3-1.44c1.93-3.35,8-3.1,7.54-8.53a3.62,3.62,0,0,1,0-1.7c2-3.32,5.71-3.57,8.72-5.08,1.62-.8,2.89-3.12,5.13-1.2,3,2.55-.74,5.27.18,7.88,6.1,5.33,2,14.17,6.72,20,.24-2.63-2-4.61-1.66-7.19s-.84-6.14,3.83-5.86c2.22.31,3,4.32,6.53,2,2.28-1.49,4.26,0,4.15,3.34-.12,3.89,2.36,6.3,6,5.69s2.52-3.95,2.17-6.52c-.69-5.13,1.3-8.75,6.53-9.46,5.7-.76,8.43-7.29,14.51-7,3.72,1.22,3.11,4.91,4.4,7.92a24.77,24.77,0,0,0,.29-10c6.87-5,16.37-7.37,17.67-18.05.35-2.83,3.32-2.62,5.63-2.59,2.53-1.86,4.67.06,7.06.51,3.07.58,6.91,2,8.23-2.93.26-3.71-1.78-6.67-3.23-9.82-1.65-2.67-1.2-5.49,1.36-6.68,5-2.32,5.11-6.56,5.53-10.89-2.51-10.42,7.85-4.72,10.64-8.5,2.36-1.93,4.08-4,1.13-6.78l0,.09a21.08,21.08,0,0,1,3.72-9.86l3.33-1.06c4.78-.19,6.44-4.25,9-7.23,5.3-2.4,9.93-2.7,12.37,3.91-.76,3.26-.83,7.12-5.9,6.47-1.7-.22-3.59-.55-3.87,2a3.91,3.91,0,0,0,1.57,3.78,3.79,3.79,0,0,0,4.77-.21c2.47-1.92,4-6.23,8.35-3.24,8.19,2.39,16.55,4,24.21,8.3,3.83,2.13,5.7-2.83,8.14-4.94,3.15-2.7,5.37-7.23,10.43-2.07.87.89,7.11,3.92,7.09-4,0-4.72,4.89-3.11,7.82-.51a14.94,14.94,0,0,1,1.44,4.05c1.1,3.43,3.69,4.19,6.85,3.62s3.12-2.93,3-5.35c-.11-1.73-.22-3.46.76-5,3.26-2.69,6,.25,9,.81,2.32,1.44,4.64,2.22,7,0l2.68-.46c5.77-1.08,10.37-6.16,17.16-4.22,3.45,1,1.7-4,4.33-5.45,4.95-2.66,9.1-6.69,14-9.48a10.16,10.16,0,0,0,2-1.61c7.45-9.92,17.35-11.3,28.48-8.13,4.91,1.4,9.73-4.3,15.71.33-8.45,2.81-9.45,9.85-11.31,16.36-2.72,2.43-6.34.1-9.2,1.75-1.29,1.05-.66,2.16.31,2.66,10.42,5.38,9.48,16.34,12.56,25.32,1.07,1.5.72,2.88-.35,4.19-2.81,1.28-1.93,4.4-3.19,6.45l3,7.37c4.27,2.13.77-4.39,4.23-2.86a5.28,5.28,0,0,1,3.49,4.47c.65,4.69.73,9.36-1.56,13.56-4.8,8.83-8.42,18.33-17.37,24.54-5.51,3.82-7.25,10.25-5.83,17.11-7.46,2.48-4.34-6.11-8.74-7.93,2.21,4.18,4.63,7.67,5.16,11.89-5.66,12-3.92,25.39-6.85,37.9-.58.73-1.85,1.32-2.17.85-4.43-6.63-7.87-1.49-12.09,1.14,4.29,1.4,9.63-4.93,12.34,2.05-3.75,10-1.65,20.3-1.54,30.5.06,5.38,1.53,10.77-.08,16.15a14.62,14.62,0,0,0,0,10.38c1,3.39,5.69,6.57.56,10.3-1-.44-2.09-1.56-2.83.33,5.26,4.87,5.72,11.62,7.07,18,.85,4,1.45,7.93-1.5,11.42-1.08,1.21-2.14,2.46-4,2.47a3.25,3.25,0,0,1-2-1.22,16.3,16.3,0,0,1-1.94-7.43c-.51-7.23-2.5-8.33-10.28-6-1.14,4.37,2.82,1,3.65,2.37,7.08,7.55,6.37,15.07-2.27,23.86l-5.49,3.69c-2.46,3.43.26,5.86,1.63,8.56-.33,4.7,0,8.89,6.29,9.06,1.77,0,4.18,1.14,2.9,2.86-4,5.41-1.17,12-3.77,17.57a2.1,2.1,0,0,1-1.89.69,17.44,17.44,0,0,0-3.11-.68c-4.66,1.54-6.64,4.36-4.62,9.24a11.09,11.09,0,0,1,.34,6.81,26.91,26.91,0,0,0-.21,12.68c.39,1.76,0,3.57.24,5.32,4.27.12,7.86,1.26,9.1,5.95v0c1.95,2.62-.1,5.92,1.48,8.59,2.46,2.42,3,5.6,3.48,8.79-1.51,1.29-3.52,1.77-5,3.06l.21.66c-6.35,7-9.71,16.14-16.72,22.78-3.05,2.89-4.18,7-2.15,11.85,2.69,6.42,6.74,12.94,3,20.52-.52,1.07.73,0,1.18.12,4,1.16,4.21,4.21,3.85,7.56a5.35,5.35,0,0,1-.57,1.55c-.71,1.22-1.29,2.45-.65,3.89,1.08-.67.51-2.63,2.2-2.84,4.84,1.75,8.54,5.15,12.33,8.43C487.74,658.5,490,664,485.48,668.18Z"/></svg>