<?xml version="1.0" encoding="UTF-8" standalone="no"?>
<svg
   xmlns:dc="http://purl.org/dc/elements/1.1/"
   xmlns:cc="http://creativecommons.org/ns#"
   xmlns:rdf="http://www.w3.org/1999/02/22-rdf-syntax-ns#"
   xmlns:svg="http://www.w3.org/2000/svg"
   xmlns="http://www.w3.org/2000/svg"
   viewBox="0 0 2134.6667 1405.3333"
   height="1405.3333"
   width="2134.6667"
   xml:space="preserve"
   id="svg2"
   version="1.1"><metadata
     id="metadata8"><rdf:RDF><cc:Work
         rdf:about=""><dc:format>image/svg+xml</dc:format><dc:type
           rdf:resource="http://purl.org/dc/dcmitype/StillImage" /></cc:Work></rdf:RDF></metadata><defs
     id="defs6"><clipPath
       id="clipPath18"
       clipPathUnits="userSpaceOnUse"><path
         id="path16"
         d="M 0,1054 H 1601 V 0 H 0 Z" /></clipPath></defs><g
     transform="matrix(1.3333333,0,0,-1.3333333,0,1405.3333)"
     id="g10"><g
       id="g12"><g
         clip-path="url(#clipPath18)"
         id="g14"><g
           transform="translate(216.6978,327.6592)"
           id="g20"><path
             id="path22"
             style="fill:#0f87b3;fill-opacity:1;fill-rule:nonzero;stroke:none"
             d="m 0,0 c 0,-0.175 6.585,-4.136 14.568,-3.903 4.254,0 6.411,1.107 6.411,3.38 0,2.098 -1.224,3.147 -5.42,4.079 L 9.032,4.955 C 1.515,6.527 -1.69,10.314 -1.69,17.133 c -0.001,7.225 5.127,12.528 15.966,12.529 9.149,0.234 15.85,-3.612 15.85,-3.787 L 27.913,16.9 c 0,0.175 -5.77,4.022 -13.404,3.788 -3.963,0 -5.943,-1.048 -5.943,-3.205 0,-2.097 1.224,-3.03 5.419,-3.904 l 5.653,-1.165 c 8.158,-1.69 11.654,-5.595 11.655,-12.413 0,-7.866 -5.653,-12.878 -17.016,-12.878 -9.265,-0.233 -16.608,3.787 -16.549,3.962 z" /></g><g
           transform="translate(273.8619,333.1973)"
           id="g24"><path
             id="path26"
             style="fill:#0f87b3;fill-opacity:1;fill-rule:nonzero;stroke:none"
             d="m 0,0 -0.117,0.816 c -0.407,2.389 -2.272,4.137 -5.244,4.137 -3.031,0 -5.303,-1.748 -6.061,-4.953 z m 9.149,-1.807 c 0,-1.864 -0.233,-3.38 -0.291,-3.671 h -20.046 c 1.107,-3.088 4.254,-4.953 8.683,-4.953 5.011,0 9.032,2.39 9.032,2.565 l 1.981,-7.576 c 0,-0.291 -5.011,-2.856 -12.47,-2.856 -10.897,0 -17.308,6.06 -17.308,15.5 0,8.683 6.527,14.978 15.792,14.978 8.974,0 14.627,-5.654 14.627,-13.987" /></g><g
           transform="translate(288.8365,344.6201)"
           id="g28"><path
             id="path30"
             style="fill:#0f87b3;fill-opacity:1;fill-rule:nonzero;stroke:none"
             d="m 0,0 h 10.023 v -3.438 c 0,0.174 3.555,4.253 7.634,4.021 2.622,0 3.846,-0.816 3.905,-0.874 l -2.215,-8.684 c -0.175,0.118 -1.515,0.758 -3.73,0.758 -3.03,0 -5.594,-2.272 -5.594,-2.506 V -28.962 H 0 Z" /></g><g
           transform="translate(320.8853,344.6201)"
           id="g32"><path
             id="path34"
             style="fill:#0f87b3;fill-opacity:1;fill-rule:nonzero;stroke:none"
             d="M 0,0 6.353,-17.423 12.587,0.001 H 23.018 L 10.665,-28.961 h -8.8 L -10.547,0 Z" /></g><g
           transform="translate(347.981,344.6211)"
           id="g36"><path
             id="path38"
             style="fill:#0f87b3;fill-opacity:1;fill-rule:nonzero;stroke:none"
             d="M 0,0 10.023,0.001 V -28.961 L 0,-28.962 Z m 10.372,8.975 c 0,-3.205 -2.214,-5.303 -5.419,-5.304 -3.264,0 -5.478,2.098 -5.478,5.303 0,3.205 2.273,5.361 5.478,5.361 3.205,10e-4 5.419,-2.155 5.419,-5.36" /></g><g
           transform="translate(390.0538,342.6416)"
           id="g40"><path
             id="path42"
             style="fill:#0f87b3;fill-opacity:1;fill-rule:nonzero;stroke:none"
             d="m 0,0 -2.04,-7.984 c 0,0.233 -3.088,2.389 -6.643,2.389 -4.487,0 -7.226,-2.68 -7.225,-6.818 0,-4.254 2.739,-6.993 7.225,-6.993 3.73,0 6.877,2.156 6.877,2.389 l 2.039,-7.866 c 0,-0.291 -4.137,-2.856 -10.43,-2.856 -9.441,0 -15.968,6.41 -15.968,15.326 0,8.741 6.527,15.151 15.967,15.151 C -4.429,2.738 0,0.291 0,0" /></g><g
           transform="translate(395.5299,344.623)"
           id="g44"><path
             id="path46"
             style="fill:#0f87b3;fill-opacity:1;fill-rule:nonzero;stroke:none"
             d="M 0,0 H 10.023 V -28.962 H 0 Z m 10.372,8.974 c 0,-3.205 -2.214,-5.303 -5.419,-5.303 -3.264,0 -5.478,2.098 -5.478,5.303 0,3.205 2.273,5.361 5.478,5.361 3.205,0 5.419,-2.156 5.419,-5.361" /></g><g
           transform="translate(434.2232,330.2305)"
           id="g48"><path
             id="path50"
             style="fill:#0f87b3;fill-opacity:1;fill-rule:nonzero;stroke:none"
             d="m 0,0 c 0,3.788 -2.681,6.526 -6.469,6.526 -3.788,0 -6.469,-2.739 -6.468,-6.527 0,-3.963 2.681,-6.643 6.469,-6.643 C -2.681,-6.644 0,-3.963 0,0 m 9.848,0 c 0,-8.799 -6.702,-15.326 -16.316,-15.326 -9.732,-10e-4 -16.317,6.526 -16.317,15.325 -0.001,8.624 6.643,15.151 16.316,15.152 C 3.146,15.151 9.848,8.624 9.848,0" /></g><g
           transform="translate(449.9552,325.1025)"
           id="g52"><path
             id="path54"
             style="fill:#0f87b3;fill-opacity:1;fill-rule:nonzero;stroke:none"
             d="m 0,0 c 0,-0.233 5.536,-2.855 11.422,-2.854 2.564,0 3.904,0.699 3.904,1.864 0,1.224 -0.758,1.69 -3.263,2.098 L 7.459,1.749 c -6.235,0.932 -8.857,3.729 -8.858,9.031 0,5.886 4.138,9.557 12.704,9.558 6.818,0 12.237,-2.389 12.237,-2.681 L 21.619,10.49 c 0,0.175 -5.128,2.564 -10.314,2.564 -2.448,0 -3.672,-0.582 -3.672,-1.69 0,-1.223 0.758,-1.748 3.322,-2.156 l 4.079,-0.583 c 6.527,-0.874 9.324,-3.729 9.324,-9.091 0,-6.059 -4.428,-9.731 -13.519,-9.731 -6.935,-0.001 -12.704,2.679 -12.704,2.971 z" /></g><g
           transform="translate(499.3683,344.626)"
           id="g56"><path
             id="path58"
             style="fill:#0f87b3;fill-opacity:1;fill-rule:nonzero;stroke:none"
             d="M 0,0 6.76,-17.016 12.704,0 H 22.96 L 6.819,-40.559 H -3.612 l 5.827,12.705 -13.171,27.853 z" /></g><g
           transform="translate(535.903,356.4561)"
           id="g60"><path
             id="path62"
             style="fill:#0f87b3;fill-opacity:1;fill-rule:nonzero;stroke:none"
             d="m 0,0 35.546,0.001 10e-4,-9.498 H 22.902 V -40.79 L 12.646,-40.791 V -9.498 L 0,-9.498 Z" /></g><g
           transform="translate(575.528,344.6279)"
           id="g64"><path
             id="path66"
             style="fill:#0f87b3;fill-opacity:1;fill-rule:nonzero;stroke:none"
             d="m 0,0 h 10.023 v -3.438 c 0,0.174 3.555,4.253 7.634,4.022 2.622,0 3.846,-0.816 3.905,-0.874 l -2.215,-8.684 c -0.175,0.118 -1.515,0.758 -3.73,0.758 -3.03,-0.001 -5.594,-2.273 -5.594,-2.507 v -18.239 l -10.023,0 z" /></g><g
           transform="translate(616.8434,325.2822)"
           id="g68"><path
             id="path70"
             style="fill:#0f87b3;fill-opacity:1;fill-rule:nonzero;stroke:none"
             d="m 0,0 c -1.807,1.34 -3.322,2.331 -6.061,2.331 -2.097,0 -3.379,-1.224 -3.379,-3.03 0,-1.865 1.282,-3.089 3.379,-3.089 2.739,0 4.138,0.991 6.061,2.447 z M -9.732,8.566 C -4.021,8.566 0,5.244 0,4.953 v 1.632 c 0,3.787 -2.215,5.536 -7.168,5.536 -4.138,0 -7.925,-1.69 -8.392,-1.981 l -1.864,7.633 c 0,0.233 6.118,2.389 12.47,2.389 9.557,0 14.569,-4.66 14.569,-13.344 V -9.614 L 0,-9.615 v 3.321 c 0,-0.407 -3.846,-3.904 -9.79,-3.904 -5.886,0 -9.673,3.672 -9.673,9.44 0,5.653 3.845,9.324 9.731,9.324" /></g><g
           transform="translate(630.1852,344.6299)"
           id="g72"><path
             id="path74"
             style="fill:#0f87b3;fill-opacity:1;fill-rule:nonzero;stroke:none"
             d="m 0,0 h 4.953 v 7.459 h 9.906 L 14.86,0 h 7.517 V -7.75 H 14.86 v -10.023 c 0,-2.04 1.107,-3.206 3.205,-3.264 1.981,0 3.38,0.933 3.555,1.049 l 1.981,-7.866 c 0,-0.175 -3.38,-1.866 -7.809,-1.866 -6.759,0 -10.838,3.847 -10.838,11.073 L 4.953,-7.75 H 0 Z" /></g><g
           transform="translate(675.9293,325.2842)"
           id="g76"><path
             id="path78"
             style="fill:#0f87b3;fill-opacity:1;fill-rule:nonzero;stroke:none"
             d="m 0,0 c -1.807,1.34 -3.322,2.331 -6.061,2.331 -2.097,0 -3.379,-1.224 -3.379,-3.03 0,-1.865 1.282,-3.089 3.379,-3.089 2.739,0 4.138,0.991 6.061,2.447 z M -9.732,8.566 C -4.021,8.566 0,5.244 0,4.953 v 1.632 c 0,3.787 -2.215,5.536 -7.168,5.536 -4.138,0 -7.925,-1.69 -8.392,-1.981 l -1.864,7.633 c 0,0.233 6.118,2.389 12.47,2.389 9.557,0 14.569,-4.661 14.569,-13.345 V -9.615 H 0 v 3.321 c 0,-0.407 -3.846,-3.904 -9.79,-3.904 -5.886,0 -9.673,3.671 -9.673,9.439 0,5.653 3.845,9.325 9.731,9.325" /></g><g
           transform="translate(692.3595,344.6318)"
           id="g80"><path
             id="path82"
             style="fill:#0f87b3;fill-opacity:1;fill-rule:nonzero;stroke:none"
             d="m 0,0 h 10.023 v -3.438 c 1.69,2.04 4.487,4.137 8.858,4.137 4.137,0 7.109,-1.632 8.682,-4.72 2.157,2.739 5.595,4.721 10.256,4.721 6.294,0 9.849,-3.729 9.849,-10.548 V -28.961 H 37.354 v 16.782 c 0,2.973 -1.341,4.488 -3.963,4.488 -2.914,-0.001 -4.721,-2.857 -4.721,-3.148 v -1.398 l 10e-4,-16.725 H 18.648 l -0.001,16.782 c 0,2.973 -1.34,4.488 -3.962,4.488 -2.797,0 -4.662,-2.856 -4.662,-3.147 V -28.962 H 0 Z" /></g><g
           transform="translate(747.3087,344.6328)"
           id="g84"><path
             id="path86"
             style="fill:#0f87b3;fill-opacity:1;fill-rule:nonzero;stroke:none"
             d="m 0,0 h 10.023 l 10e-4,-28.962 H 10e-4 Z m 10.373,8.974 c 0,-3.205 -2.215,-5.303 -5.42,-5.303 -3.263,0 -5.477,2.098 -5.477,5.303 -0.001,3.205 2.271,5.361 5.476,5.361 3.205,0 5.42,-2.156 5.421,-5.361" /></g><g
           transform="translate(784.4865,333.2119)"
           id="g88"><path
             id="path90"
             style="fill:#0f87b3;fill-opacity:1;fill-rule:nonzero;stroke:none"
             d="M 0,0 -0.116,0.816 C -0.524,3.205 -2.389,4.953 -5.36,4.953 -8.391,4.953 -10.664,3.205 -11.421,0 Z m 9.149,-1.806 c 0,-1.864 -0.233,-3.38 -0.291,-3.671 l -20.046,-10e-4 c 1.107,-3.088 4.253,-4.953 8.683,-4.953 5.011,0 9.032,2.39 9.032,2.565 l 1.981,-7.575 c 0,-0.291 -5.01,-2.857 -12.469,-2.857 -10.897,0 -17.308,6.061 -17.309,15.501 0,8.683 6.527,14.977 15.792,14.977 8.975,0 14.627,-5.653 14.627,-13.986" /></g><g
           transform="translate(799.4615,344.6348)"
           id="g92"><path
             id="path94"
             style="fill:#0f87b3;fill-opacity:1;fill-rule:nonzero;stroke:none"
             d="m 0,0 h 10.022 v -3.438 c 1.807,1.922 4.837,4.137 9.499,4.137 6.702,0.001 10.373,-3.728 10.373,-10.547 l 0.001,-19.113 -9.965,-0.001 -0.001,16.666 c 0,2.856 -1.456,4.604 -4.487,4.604 -3.088,0 -5.42,-2.856 -5.42,-3.147 l 10e-4,-18.123 H 10e-4 Z" /></g><g
           transform="translate(833.2574,344.6357)"
           id="g96"><path
             id="path98"
             style="fill:#0f87b3;fill-opacity:1;fill-rule:nonzero;stroke:none"
             d="m 0,0 h 4.953 v 7.459 h 9.906 V 0 h 7.518 v -7.75 h -7.518 v -10.023 c 0,-2.04 1.108,-3.206 3.205,-3.264 1.982,0 3.38,0.933 3.555,1.049 l 1.983,-7.866 c 0,-0.175 -3.38,-1.866 -7.809,-1.866 -6.76,0 -10.839,3.847 -10.84,11.073 V -7.75 L 0,-7.75 Z" /></g><g
           transform="translate(882.149,330.2432)"
           id="g100"><path
             id="path102"
             style="fill:#0f87b3;fill-opacity:1;fill-rule:nonzero;stroke:none"
             d="m 0,0 c 0,3.788 -2.681,6.526 -6.469,6.526 -3.787,0 -6.468,-2.738 -6.468,-6.526 0,-3.963 2.681,-6.644 6.468,-6.644 C -2.681,-6.644 0,-3.963 0,0 m 9.848,0 c 10e-4,-8.799 -6.701,-15.326 -16.316,-15.326 -9.731,0 -16.316,6.527 -16.317,15.326 0,8.624 6.643,15.151 16.316,15.151 C 3.146,15.151 9.848,8.624 9.848,0" /></g><g
           transform="translate(897.8805,325.1162)"
           id="g104"><path
             id="path106"
             style="fill:#0f87b3;fill-opacity:1;fill-rule:nonzero;stroke:none"
             d="m 0,0 c 0,-0.233 5.537,-2.855 11.422,-2.855 2.564,0 3.903,0.699 3.903,1.864 0,1.224 -0.757,1.69 -3.262,2.098 L 7.459,1.748 c -6.235,0.933 -8.857,3.73 -8.857,9.032 0,5.886 4.136,9.557 12.703,9.557 6.818,0 12.237,-2.389 12.237,-2.681 l -1.923,-7.167 c 0,0.175 -5.128,2.564 -10.314,2.564 -2.448,0 -3.671,-0.582 -3.671,-1.69 0,-1.223 0.757,-1.748 3.321,-2.156 l 4.079,-0.583 c 6.527,-0.874 9.324,-3.729 9.324,-9.091 0.001,-6.059 -4.428,-9.731 -13.518,-9.731 -6.935,0 -12.704,2.68 -12.704,2.972 z" /></g><g
           transform="translate(971.5944,336.1318)"
           id="g108"><path
             id="path110"
             style="fill:#0f87b3;fill-opacity:1;fill-rule:nonzero;stroke:none"
             d="m 0,0 c 0,6.817 -4.604,11.654 -10.897,11.654 -6.352,-10e-4 -10.956,-4.838 -10.956,-11.655 0,-6.935 4.604,-11.771 10.956,-11.77 C -4.604,-11.771 0,-6.935 0,0 M 8.626,-27.738 H -3.32 l -4.779,6.351 c -0.932,-0.116 -1.865,-0.175 -2.797,-0.175 -12.063,-0.233 -21.853,9.499 -21.621,21.561 -0.232,12.063 9.556,21.619 21.619,21.445 C 1.165,21.619 10.839,12.063 10.664,0 c 0,-7.692 -3.612,-14.277 -9.497,-18.064 z" /></g><g
           transform="translate(1017.8043,315.6787)"
           id="g112"><path
             id="path114"
             style="fill:#0f87b3;fill-opacity:1;fill-rule:nonzero;stroke:none"
             d="M 0,0 H -10.023 V 3.438 C -11.83,1.515 -14.86,-0.699 -19.521,-0.699 -26.224,-0.7 -29.895,3.029 -29.896,9.848 v 19.113 l 9.965,0.001 V 12.296 c 0,-2.856 1.457,-4.604 4.488,-4.604 3.088,0 5.419,2.856 5.419,3.147 v 18.123 h 10.023 z" /></g><g
           transform="translate(1025.6686,344.6406)"
           id="g116"><path
             id="path118"
             style="fill:#0f87b3;fill-opacity:1;fill-rule:nonzero;stroke:none"
             d="M 0,0 9.965,0.001 9.966,-28.961 0.001,-28.962 Z M 4.894,14.744 15.85,13.753 4.604,4.43 -1.573,5.478 Z" /></g><g
           transform="translate(1043.4987,344.6416)"
           id="g120"><path
             id="path122"
             style="fill:#0f87b3;fill-opacity:1;fill-rule:nonzero;stroke:none"
             d="m 0,0 h 10.022 v -3.438 c 1.691,2.04 4.488,4.137 8.858,4.138 4.138,0 7.109,-1.632 8.682,-4.72 2.157,2.739 5.595,4.72 10.257,4.72 6.293,0 9.848,-3.729 9.848,-10.548 l 10e-4,-19.113 H 37.354 l -10e-4,16.782 c 0,2.973 -1.34,4.488 -3.962,4.488 -2.914,0 -4.721,-2.856 -4.721,-3.147 v -1.398 l 10e-4,-16.725 H 18.648 l -0.001,16.782 c 0,2.973 -1.34,4.488 -3.962,4.487 -2.797,0 -4.663,-2.856 -4.663,-3.147 l 10e-4,-18.123 H 10e-4 Z" /></g><g
           transform="translate(1098.4479,344.6436)"
           id="g124"><path
             id="path126"
             style="fill:#0f87b3;fill-opacity:1;fill-rule:nonzero;stroke:none"
             d="m 0,0 h 10.023 l 10e-4,-28.962 H 10e-4 Z m 10.373,8.974 c 0,-3.205 -2.215,-5.303 -5.42,-5.303 -3.263,0 -5.477,2.098 -5.477,5.303 -0.001,3.205 2.271,5.361 5.476,5.361 3.205,0 5.42,-2.156 5.421,-5.361" /></g><g
           transform="translate(1140.5211,342.6631)"
           id="g128"><path
             id="path130"
             style="fill:#0f87b3;fill-opacity:1;fill-rule:nonzero;stroke:none"
             d="m 0,0 -2.04,-7.983 c 0,0.233 -3.088,2.389 -6.643,2.389 -4.487,-10e-4 -7.226,-2.681 -7.226,-6.819 0,-4.254 2.739,-6.993 7.226,-6.992 3.73,0 6.876,2.156 6.876,2.389 l 2.041,-7.867 c 0,-0.291 -4.137,-2.855 -10.431,-2.855 -9.441,-0.001 -15.967,6.409 -15.968,15.325 0,8.741 6.526,15.151 15.967,15.152 C -4.429,2.739 0,0.291 0,0" /></g><g
           transform="translate(1166.0436,330.252)"
           id="g132"><path
             id="path134"
             style="fill:#0f87b3;fill-opacity:1;fill-rule:nonzero;stroke:none"
             d="m 0,0 c 0,3.788 -2.681,6.526 -6.469,6.525 -3.787,0 -6.468,-2.738 -6.468,-6.526 0,-3.963 2.681,-6.644 6.468,-6.644 C -2.681,-6.644 0,-3.963 0,0 m 9.848,0 c 10e-4,-8.799 -6.701,-15.326 -16.316,-15.327 -9.731,0 -16.316,6.527 -16.317,15.326 0,8.624 6.643,15.151 16.316,15.151 C 3.146,15.151 9.848,8.624 9.848,0" /></g><g
           transform="translate(1181.776,325.124)"
           id="g136"><path
             id="path138"
             style="fill:#0f87b3;fill-opacity:1;fill-rule:nonzero;stroke:none"
             d="m 0,0 c 0,-0.233 5.537,-2.855 11.422,-2.855 2.564,10e-4 3.903,0.7 3.903,1.865 0,1.224 -0.757,1.69 -3.262,2.097 L 7.459,1.748 c -6.235,0.933 -8.857,3.73 -8.857,9.032 0,5.886 4.136,9.557 12.703,9.557 6.818,0.001 12.237,-2.388 12.237,-2.68 L 21.619,10.49 c 0,0.175 -5.128,2.564 -10.314,2.563 -2.448,0 -3.671,-0.582 -3.671,-1.69 0,-1.223 0.757,-1.748 3.321,-2.156 l 4.079,-0.582 c 6.527,-0.874 9.324,-3.729 9.324,-9.091 0.001,-6.059 -4.428,-9.731 -13.518,-9.732 -6.935,0 -12.704,2.68 -12.704,2.972 z" /></g><g
           transform="translate(1212.2516,307.4678)"
           id="g140"><path
             id="path142"
             style="fill:#0f87b3;fill-opacity:1;fill-rule:nonzero;stroke:none"
             d="M 0,0 C 0.292,0.467 2.215,3.788 2.798,8.042 0,8.333 -1.864,10.373 -1.864,13.345 c -10e-4,3.205 2.271,5.361 5.593,5.361 3.554,0 5.769,-1.981 5.77,-6.119 C 9.499,10.314 9.091,8.101 8.217,6.061 7.343,3.963 6.41,2.156 5.304,0.642 4.254,-0.932 3.729,-1.632 3.729,-1.457 Z" /></g><g
           transform="translate(1242.61,327.6895)"
           id="g144"><path
             id="path146"
             style="fill:#0f87b3;fill-opacity:1;fill-rule:nonzero;stroke:none"
             d="m 0,0 c 0,-0.175 6.585,-4.137 14.568,-3.904 4.254,0 6.411,1.108 6.411,3.381 0,2.098 -1.224,3.147 -5.42,4.078 L 9.032,4.954 c -7.516,1.573 -10.721,5.36 -10.721,12.179 0,7.225 5.127,12.528 15.965,12.528 9.149,0.235 15.851,-3.611 15.851,-3.786 L 27.913,16.9 c 0,0.175 -5.769,4.022 -13.403,3.787 -3.962,0 -5.944,-1.048 -5.944,-3.205 0,-2.097 1.224,-3.03 5.419,-3.904 l 5.654,-1.164 C 27.797,10.724 31.293,6.819 31.293,0.001 31.294,-7.865 25.642,-12.877 14.278,-12.878 5.013,-13.111 -2.33,-9.09 -2.271,-8.915 Z" /></g><g
           transform="translate(1291.2672,320.5811)"
           id="g148"><path
             id="path150"
             style="fill:#0f87b3;fill-opacity:1;fill-rule:nonzero;stroke:none"
             d="m 0,0 c 0,-3.438 -2.331,-5.652 -5.769,-5.652 -3.438,0 -5.769,2.214 -5.769,5.652 -10e-4,3.322 2.33,5.595 5.768,5.595 C -2.332,5.595 -0.001,3.322 0,0" /></g><g
           transform="translate(1332.7916,331.1885)"
           id="g152"><path
             id="path154"
             style="fill:#0f87b3;fill-opacity:1;fill-rule:nonzero;stroke:none"
             d="M 0,0 -5.711,15.325 -11.479,0 Z M -10.956,25.29 H -0.408 L 16.667,-15.5 5.596,-15.501 2.855,-8.158 h -17.19 l -2.738,-7.343 -11.014,-0.001 z" /></g><g
           transform="translate(1364.4332,320.583)"
           id="g156"><path
             id="path158"
             style="fill:#0f87b3;fill-opacity:1;fill-rule:nonzero;stroke:none"
             d="m 0,0 c 0,-3.438 -2.331,-5.652 -5.769,-5.652 -3.438,0 -5.769,2.214 -5.769,5.652 -10e-4,3.322 2.33,5.595 5.768,5.595 C -2.332,5.595 -0.001,3.322 0,0" /></g><g
           transform="translate(331.1889,268.9629)"
           id="g160"><path
             id="path162"
             style="fill:#0f87b3;fill-opacity:1;fill-rule:nonzero;stroke:none"
             d="m 0,0 36.69,0.001 -1.74,-11.094 -23.855,-10e-4 -1.378,-8.339 21.173,0.001 -1.74,-11.093 -21.173,-0.001 -1.45,-9.137 24.581,10e-4 -1.668,-11.094 -37.415,-10e-4 z" /></g><g
           transform="translate(387.0918,244.8184)"
           id="g164"><path
             id="path166"
             style="fill:#0f87b3;fill-opacity:1;fill-rule:nonzero;stroke:none"
             d="M 0,0 -13.632,24.146 H 0.87 L 8.701,8.412 21.172,24.146 36.762,24.147 15.372,-0.725 29.73,-26.61 H 15.228 L 6.526,-9.716 -7.033,-26.611 h -15.589 z" /></g><g
           transform="translate(448.5776,243.8779)"
           id="g168"><path
             id="path170"
             style="fill:#0f87b3;fill-opacity:1;fill-rule:nonzero;stroke:none"
             d="m 0,0 c 5.728,0 8.918,2.828 8.918,7.831 0,4.061 -2.537,6.235 -7.396,6.235 H -5.874 L -8.121,0 Z M -16.75,25.088 H 3.48 C 15.009,25.089 21.897,18.853 21.897,8.702 21.898,-3.263 12.689,-11.094 -0.145,-11.095 h -9.716 l -2.247,-14.574 h -12.617 z" /></g><g
           transform="translate(482.146,268.9668)"
           id="g172"><path
             id="path174"
             style="fill:#0f87b3;fill-opacity:1;fill-rule:nonzero;stroke:none"
             d="M 0,0 36.69,0.001 34.95,-11.093 H 11.095 L 9.717,-19.432 H 30.89 l -1.74,-11.093 -21.173,-0.001 -1.45,-9.137 24.581,10e-4 -1.668,-11.094 -37.415,-10e-4 z" /></g><g
           transform="translate(546.5317,244.6777)"
           id="g176"><path
             id="path178"
             style="fill:#0f87b3;fill-opacity:1;fill-rule:nonzero;stroke:none"
             d="m 0,0 c 5.511,0 8.411,2.756 8.411,7.687 0,3.698 -2.392,5.583 -6.961,5.583 H -6.453 L -8.556,0 Z M -17.33,24.291 H 3.698 C 14.792,24.292 21.535,18.636 21.536,9.282 21.536,0.944 16.823,-5.51 9.209,-8.411 l 10.37,-18.054 -14.285,-0.001 -8.846,16.605 h -6.526 l -2.61,-16.605 -12.617,-10e-4 z" /></g><g
           transform="translate(581.5507,268.9697)"
           id="g180"><path
             id="path182"
             style="fill:#0f87b3;fill-opacity:1;fill-rule:nonzero;stroke:none"
             d="M 0,0 12.762,0.001 4.787,-50.757 H -7.975 Z" /></g><g
           transform="translate(606.4194,268.9707)"
           id="g184"><path
             id="path186"
             style="fill:#0f87b3;fill-opacity:1;fill-rule:nonzero;stroke:none"
             d="m 0,0 36.69,0.001 -1.74,-11.094 -23.855,-10e-4 -1.378,-8.339 21.173,0.001 -1.74,-11.093 -21.173,-0.001 -1.45,-9.137 24.581,10e-4 -1.668,-11.094 -37.415,-10e-4 z" /></g><g
           transform="translate(653.475,268.9717)"
           id="g188"><path
             id="path190"
             style="fill:#0f87b3;fill-opacity:1;fill-rule:nonzero;stroke:none"
             d="M 0,0 11.964,0.001 29.005,-31.831 34.007,0.001 45.971,0.002 37.997,-50.756 H 26.032 L 9.064,-18.852 3.989,-50.757 H -7.975 Z" /></g><g
           transform="translate(750.3456,265.2764)"
           id="g192"><path
             id="path194"
             style="fill:#0f87b3;fill-opacity:1;fill-rule:nonzero;stroke:none"
             d="m 0,0 -4.206,-11.746 c 0,0.362 -5.148,5.221 -12.399,4.931 -9.789,-10e-4 -16.169,-6.962 -16.169,-16.679 0,-7.903 4.931,-13.052 13.125,-13.051 7.323,-0.29 13.849,4.931 13.849,5.149 l 1.74,-11.674 c 0,-0.218 -7.831,-5.729 -17.475,-5.367 -14.429,-0.001 -24.436,9.933 -24.436,23.928 C -46.261,-7.904 -32.63,5.365 -15.88,5.076 -6.599,5.366 0,0.362 0,0" /></g><g
           transform="translate(761.4374,268.9756)"
           id="g196"><path
             id="path198"
             style="fill:#0f87b3;fill-opacity:1;fill-rule:nonzero;stroke:none"
             d="M 0,0 H 12.762 L 4.786,-50.757 -7.976,-50.758 Z" /></g><g
           transform="translate(811.3217,237.5078)"
           id="g200"><path
             id="path202"
             style="fill:#0f87b3;fill-opacity:1;fill-rule:nonzero;stroke:none"
             d="M 0,0 -3.989,19.069 -14.14,0 Z M -9.064,31.469 H 4.06 l 13.342,-50.756 -13.415,-0.001 -1.957,9.136 -21.39,-0.001 -4.785,-9.136 h -14.213 z" /></g><g
           transform="translate(866.352,268.9785)"
           id="g204"><path
             id="path206"
             style="fill:#0f87b3;fill-opacity:1;fill-rule:nonzero;stroke:none"
             d="M 0,0 8.484,-18.78 22.841,0 38.067,0.001 13.415,-30.6 10.225,-50.757 H -2.537 l 3.118,20.085 -14.938,30.671 z" /></g><g
           transform="translate(964.6713,265.2832)"
           id="g208"><path
             id="path210"
             style="fill:#0f87b3;fill-opacity:1;fill-rule:nonzero;stroke:none"
             d="m 0,0 -4.206,-11.747 c 0,0.362 -5.148,5.221 -12.399,4.931 -9.79,0 -16.169,-6.961 -16.169,-16.678 0,-7.903 4.931,-13.052 13.125,-13.052 7.323,-0.29 13.849,4.931 13.849,5.149 l 1.74,-11.674 c 0,-0.218 -7.831,-5.729 -17.474,-5.367 -14.429,0 -24.437,9.933 -24.437,23.928 C -46.262,-7.905 -32.63,5.365 -15.88,5.075 -6.599,5.365 0,0.362 0,0" /></g><g
           transform="translate(1000.4174,237.5137)"
           id="g212"><path
             id="path214"
             style="fill:#0f87b3;fill-opacity:1;fill-rule:nonzero;stroke:none"
             d="M 0,0 -3.989,19.069 -14.14,-0.001 Z M -9.064,31.468 4.06,31.469 17.402,-19.288 H 3.987 l -1.957,9.136 -21.39,-0.001 -4.786,-9.136 h -14.212 z" /></g><g
           transform="translate(1031.7378,268.9834)"
           id="g216"><path
             id="path218"
             style="fill:#0f87b3;fill-opacity:1;fill-rule:nonzero;stroke:none"
             d="M 0,0 H 12.762 L 6.673,-38.721 30.601,-38.72 28.716,-50.757 -7.975,-50.758 Z" /></g><g
           transform="translate(1076.5464,268.9844)"
           id="g220"><path
             id="path222"
             style="fill:#0f87b3;fill-opacity:1;fill-rule:nonzero;stroke:none"
             d="M 0,0 H 12.762 L 4.787,-50.757 H -7.975 Z" /></g><g
           transform="translate(1115.8462,229.8301)"
           id="g224"><path
             id="path226"
             style="fill:#0f87b3;fill-opacity:1;fill-rule:nonzero;stroke:none"
             d="m 0,0 c 9.861,0 15.808,6.31 15.808,15.881 -10e-4,7.323 -4.57,11.673 -12.909,11.673 h -6.38 L -7.758,0 Z M -14.431,39.155 H 4.712 C 19.577,39.156 28.931,30.383 28.932,16.678 29.222,0.509 16.315,-11.891 -0.29,-11.602 l -22.115,-10e-4 z" /></g><g
           transform="translate(1180.9575,237.5186)"
           id="g228"><path
             id="path230"
             style="fill:#0f87b3;fill-opacity:1;fill-rule:nonzero;stroke:none"
             d="M 0,0 -3.989,19.069 -14.14,0 Z M -9.065,31.469 H 4.06 l 13.342,-50.756 -13.414,-0.001 -1.958,9.136 -21.39,-0.001 -4.786,-9.136 h -14.211 z" /></g><g
           transform="translate(1226.7075,229.833)"
           id="g232"><path
             id="path234"
             style="fill:#0f87b3;fill-opacity:1;fill-rule:nonzero;stroke:none"
             d="m 0,0 c 9.861,0.001 15.808,6.31 15.808,15.881 -10e-4,7.323 -4.57,11.674 -12.909,11.673 h -6.38 L -7.758,0 Z m -14.431,39.155 19.143,10e-4 c 14.865,0 24.219,-8.773 24.22,-22.478 0.29,-16.169 -12.617,-28.569 -29.222,-28.28 h -22.115 z" /></g><g
           transform="translate(527.0278,438.1865)"
           id="g236"><path
             id="path238"
             style="fill:#909093;fill-opacity:1;fill-rule:nonzero;stroke:none"
             d="m 0,0 c -5.691,2.207 -9.815,4.664 -12.37,7.376 l 8.943,10.918 c 6.272,-5.575 14.325,-8.363 24.159,-8.362 6.659,0 11.866,1.046 15.622,3.136 3.755,2.091 5.633,4.916 5.633,8.479 0,2.632 -1.433,4.839 -4.298,6.621 -2.865,1.78 -7.589,3.561 -14.17,5.343 l -7.085,1.974 c -6.737,1.78 -12.1,4.199 -16.087,7.258 -3.989,3.059 -5.982,7.336 -5.982,12.835 0,1.237 0.116,2.477 0.348,3.717 0.851,5.265 3.136,9.833 6.853,13.705 3.717,3.871 8.458,6.833 14.228,8.887 5.768,2.051 12.138,3.078 19.106,3.078 6.04,0 11.769,-0.969 17.19,-2.903 5.42,-1.936 9.563,-4.259 12.429,-6.969 L 54.414,63.942 c -3.02,2.4 -6.272,4.297 -9.757,5.691 -3.484,1.393 -7.549,2.091 -12.195,2.091 -5.964,0 -10.686,-1.066 -14.17,-3.195 -3.485,-2.131 -5.227,-4.976 -5.227,-8.538 0,-2.168 1.064,-3.948 3.194,-5.342 2.129,-1.393 5.982,-2.903 11.557,-4.529 l 7.085,-1.974 c 8.053,-2.324 14.345,-5.208 18.875,-8.653 4.53,-3.446 6.795,-8.188 6.795,-14.228 0,-1.24 -0.116,-2.555 -0.348,-3.95 C 59.526,16.902 57.436,12.816 53.951,9.062 50.467,5.306 45.763,2.305 39.839,0.06 33.916,-2.186 27.159,-3.309 19.571,-3.309 12.214,-3.31 5.691,-2.206 0,0" /></g><g
           transform="translate(680.9824,508.1719)"
           id="g240"><path
             id="path242"
             style="fill:#909093;fill-opacity:1;fill-rule:nonzero;stroke:none"
             d="m 0,0 -29.734,-0.001 -11.381,-72.13 h -16.842 l 11.498,72.129 -29.619,-0.001 2.09,13.822 76.078,0.003 z" /></g><g
           transform="translate(736.7377,419.7832)"
           id="g244"><path
             id="path246"
             style="fill:#909093;fill-opacity:1;fill-rule:nonzero;stroke:none"
             d="m 0,0 c -3.563,1.472 -6.776,3.524 -9.64,6.155 -2.866,2.634 -6.041,6.157 -9.525,10.571 l 21.604,2.787 c 1.083,-2.866 2.709,-5.091 4.878,-6.678 2.167,-1.586 4.606,-2.381 7.318,-2.381 5.032,0 9.794,2.131 14.285,6.389 L 35.542,7.551 C 29.038,1.046 21.293,-2.206 12.312,-2.206 7.666,-2.206 3.561,-1.471 0,0 m 8.188,32.697 c 5.381,2.515 9.794,6.058 13.241,10.627 3.444,4.569 5.632,9.873 6.562,15.913 0.928,6.04 0.406,11.343 -1.57,15.912 -1.974,4.569 -5.246,8.111 -9.814,10.628 -4.57,2.516 -10.067,3.774 -16.493,3.774 -6.505,0 -12.428,-1.259 -17.771,-3.775 -5.343,-2.517 -9.739,-6.06 -13.182,-10.629 -3.447,-4.569 -5.674,-9.872 -6.679,-15.912 -0.929,-6.04 -0.388,-11.344 1.627,-15.913 2.013,-4.569 5.285,-8.112 9.814,-10.626 4.53,-2.517 10.048,-3.775 16.552,-3.775 6.426,0 12.33,1.258 17.713,3.776 M -37.11,20.615 c -7.009,3.677 -12.062,8.846 -15.158,15.506 -3.098,6.659 -3.95,14.363 -2.556,23.114 1.393,8.749 4.683,16.453 9.872,23.114 5.186,6.659 11.865,11.827 20.035,15.506 8.168,3.677 17.248,5.518 27.237,5.518 9.833,10e-4 18.236,-1.84 25.205,-5.517 C 34.494,94.178 39.546,89.01 42.683,82.352 45.819,75.691 46.691,67.987 45.297,59.238 43.903,50.487 40.593,42.783 35.367,36.123 30.14,29.463 23.461,24.294 15.332,20.617 7.201,16.938 -1.783,15.1 -11.615,15.1 c -9.989,0 -18.488,1.837 -25.495,5.515" /></g><g
           transform="translate(786.4501,451.2617)"
           id="g248"><path
             id="path250"
             style="fill:#909093;fill-opacity:1;fill-rule:nonzero;stroke:none"
             d="M 0,0 H 18.7 L 0.813,-32.058 -14.054,-32.059 Z" /></g><g
           transform="translate(835.8686,438.1953)"
           id="g252"><path
             id="path254"
             style="fill:#909093;fill-opacity:1;fill-rule:nonzero;stroke:none"
             d="m 0,0 c -5.691,2.207 -9.814,4.664 -12.369,7.376 l 8.943,10.918 c 6.272,-5.575 14.324,-8.362 24.159,-8.362 6.659,0 11.866,1.046 15.622,3.136 3.755,2.091 5.633,4.916 5.632,8.479 0,2.632 -1.433,4.839 -4.298,6.621 -2.865,1.78 -7.588,3.561 -14.169,5.343 l -7.085,1.974 c -6.737,1.781 -12.1,4.199 -16.087,7.258 -3.99,3.059 -5.982,7.336 -5.983,12.835 0,1.237 0.116,2.477 0.349,3.717 0.85,5.265 3.136,9.833 6.852,13.705 3.717,3.871 8.459,6.834 14.229,8.887 5.767,2.051 12.138,3.078 19.106,3.078 6.04,0 11.77,-0.968 17.191,-2.903 5.419,-1.936 9.562,-4.259 12.428,-6.969 L 54.414,63.942 c -3.019,2.4 -6.271,4.298 -9.756,5.692 -3.484,1.392 -7.55,2.09 -12.196,2.09 -5.963,0 -10.686,-1.066 -14.17,-3.195 -3.484,-2.13 -5.227,-4.975 -5.227,-8.537 0,-2.168 1.064,-3.948 3.195,-5.343 2.128,-1.393 5.982,-2.903 11.557,-4.529 l 7.085,-1.974 c 8.053,-2.323 14.345,-5.208 18.874,-8.653 4.531,-3.446 6.795,-8.188 6.795,-14.228 0,-1.24 -0.116,-2.555 -0.348,-3.95 C 59.527,16.902 57.437,12.816 53.952,9.062 50.468,5.306 45.764,2.306 39.84,0.06 33.916,-2.186 27.159,-3.309 19.571,-3.309 12.214,-3.309 5.691,-2.206 0,0" /></g><g
           transform="translate(899.1791,437.4434)"
           id="g256"><path
             id="path258"
             style="fill:#909093;fill-opacity:1;fill-rule:nonzero;stroke:none"
             d="m 0,0 c -1.742,1.701 -2.613,3.792 -2.613,6.271 0,2.091 0.581,4.083 1.742,5.982 1.162,1.897 2.71,3.407 4.646,4.531 1.935,1.121 3.988,1.684 6.157,1.684 2.631,0 4.799,-0.853 6.504,-2.555 1.702,-1.704 2.555,-3.833 2.555,-6.389 0,-2.09 -0.581,-4.065 -1.742,-5.923 C 16.087,1.742 14.537,0.251 12.603,-0.871 10.666,-1.992 8.653,-2.555 6.562,-2.555 3.93,-2.555 1.743,-1.702 0,0" /></g><g
           transform="translate(1010.9184,466.7148)"
           id="g260"><path
             id="path262"
             style="fill:#909093;fill-opacity:1;fill-rule:nonzero;stroke:none"
             d="M 0,0 -11.151,34.613 -33.335,-0.001 Z m 4.065,-13.82 -45.995,-0.002 -10.801,-16.842 -17.887,-10e-4 54.936,85.953 h 15.565 l 27.645,-85.95 H 9.641 Z" /></g><g
           transform="translate(1045.2094,437.4473)"
           id="g264"><path
             id="path266"
             style="fill:#909093;fill-opacity:1;fill-rule:nonzero;stroke:none"
             d="m 0,0 c -1.742,1.702 -2.613,3.793 -2.613,6.272 0,2.091 0.581,4.083 1.742,5.982 1.162,1.896 2.71,3.406 4.646,4.53 1.935,1.121 3.988,1.684 6.157,1.684 2.631,0 4.799,-0.853 6.504,-2.555 1.702,-1.704 2.555,-3.833 2.555,-6.389 0,-2.09 -0.581,-4.065 -1.742,-5.923 C 16.087,1.742 14.537,0.251 12.603,-0.871 10.666,-1.992 8.653,-2.555 6.562,-2.555 3.93,-2.555 1.743,-1.702 0,0" /></g><g
           transform="translate(868.1313,834.4117)"
           id="g268"><path
             id="path270"
             style="fill:#0182b0;fill-opacity:1;fill-rule:nonzero;stroke:none"
             d="m 0,0 c 0,0 -155.706,5.891 -187.897,-116.451 -26.462,-100.567 54.257,-144.232 79.399,-152.171 0,0 -71.456,3.968 -108.509,88.654 0,0 -34.407,87.334 23.814,149.528 C -134.972,31.754 -42.345,33.08 0,0" /></g><g
           transform="translate(809.9098,790.7429)"
           id="g272"><path
             id="path274"
             style="fill:#029bdd;fill-opacity:1;fill-rule:nonzero;stroke:none"
             d="m 0,0 c 0,0 47.636,42.345 62.191,38.376 9.553,-2.605 38.481,-23.445 54.998,-64.766 20.353,-50.919 11.333,-109.316 -23.479,-151.686 -10.931,-13.304 -24.803,-24.961 -42.097,-30.995 0,0 50.944,33.744 49.619,93.29 -1.325,59.546 -43.008,89.459 -43.008,89.459 0,0 -29.774,25.661 -58.224,26.322" /></g><g
           transform="translate(884.049,617.4001)"
           id="g276"><path
             id="path278"
             style="fill:#7cb643;fill-opacity:1;fill-rule:nonzero;stroke:none"
             d="m 0,0 c -9.009,-13.342 -23.191,-28.21 -35.782,-34.389 -30.854,-15.14 -64.941,-14.347 -97.865,-2.666 -41.021,14.555 -59.547,58.221 -63.517,74.1 -1.775,7.096 -2.644,10.565 -3.971,18.525 -1.323,7.94 0.934,31.996 6.615,37.051 3.971,-47.636 26.468,-84.686 71.459,-108.504 C -82.04,-30.437 -39.375,-22.884 0,0" /></g></g></g></g></svg>